Coordinates
version=1
nRows=27
nColumns=12
inDegrees=yes

Units are S.I. units (second, meters, Newtons, ...)
Angles are in degrees

endheader
time	SC_y	SC_z	SC_x	AC_y	AC_z	AC_x	GH_y	GH_z	GH_yy	EL_x	PS_y
       0.0              -19.43          16.83          66.44          47.31         -3.458          9.148         -31.13          19.49          1.878          48.48          31.26
   0.04546              -19.43          16.83          66.43          47.32          -3.46          9.144         -31.14          19.49          1.895          48.48          31.26
   0.09093              -19.43          16.83          66.43          47.32         -3.461          9.139         -31.16          19.48          1.913          48.49          31.26
    0.1364              -19.43          16.82          66.42          47.32         -3.462          9.135         -31.17          19.48          1.932          48.49          31.26
    0.1819              -19.44          16.82          66.42          47.33         -3.464           9.13         -31.19          19.48          1.953           48.5          31.26
    0.2273              -19.44          16.82          66.41          47.33         -3.466          9.124          -31.2          19.48          1.974           48.5          31.25
    0.2728              -19.44          16.82          66.41          47.33         -3.467          9.119         -31.22          19.47          1.997          48.51          31.25
    0.3183              -19.44          16.81           66.4          47.34         -3.469          9.113         -31.24          19.47          2.022          48.52          31.25
    0.3637              -19.44          16.81          66.39          47.34         -3.471          9.106         -31.26          19.47          2.049          48.52          31.25
    0.4092              -19.44          16.81          66.38          47.35         -3.473          9.099         -31.28          19.47          2.077          48.53          31.24
    0.4546              -19.44           16.8          66.38          47.35         -3.476          9.092          -31.3          19.46          2.108          48.54          31.24
    0.5001              -19.45           16.8          66.37          47.36         -3.478          9.084         -31.33          19.46           2.14          48.55          31.24
    0.5456              -19.45           16.8          66.36          47.37         -3.481          9.075         -31.35          19.45          2.176          48.56          31.23
     0.591              -19.45          16.79          66.35          47.37         -3.484          9.066         -31.38          19.45          2.214          48.56          31.23
    0.6365              -19.45          16.79          66.34          47.38         -3.487          9.056         -31.41          19.45          2.255          48.58          31.22
     0.682              -19.45          16.78          66.32          47.39          -3.49          9.045         -31.44          19.44            2.3          48.59          31.22
    0.7274              -19.46          16.78          66.31           47.4         -3.494          9.033         -31.48          19.43          2.349           48.6          31.21
    0.7729              -19.46          16.77           66.3          47.41         -3.498           9.02         -31.52          19.43          2.402          48.61          31.21
    0.8184              -19.46          16.77          66.28          47.42         -3.502          9.006         -31.56          19.42           2.46          48.63           31.2
    0.8638              -19.47          16.76          66.26          47.43         -3.507          8.991         -31.61          19.42          2.524          48.64          31.19
    0.9093              -19.47          16.75          66.25          47.44         -3.512          8.974         -31.66          19.41          2.594          48.66          31.19
    0.9548              -19.47          16.74          66.22          47.46         -3.518          8.955         -31.72           19.4          2.671          48.68          31.18
       1.0              -19.48          16.73           66.2          47.47         -3.524          8.934         -31.78          19.39          2.755           48.7          31.17
     1.046              -19.48          16.72          66.18          47.49         -3.531          8.911         -31.85          19.38          2.849          48.73          31.16
     1.091              -19.49          16.71          66.15          47.51         -3.539          8.886         -31.93          19.37          2.954          48.75          31.15
     1.137              -19.49           16.7          66.12          47.53         -3.548          8.858         -32.01          19.35          3.071          48.78          31.13
     1.182               -19.5          16.68          66.08          47.56         -3.557          8.826         -32.11          19.34          3.201          48.81          31.12
